<?xml version="1.0" encoding="utf-8"?>
<!-- Generator: Adobe Illustrator 17.1.0, SVG Export Plug-In . SVG Version: 6.00 Build 0)  -->
<!DOCTYPE svg PUBLIC "-//W3C//DTD SVG 1.1//EN" "http://www.w3.org/Graphics/SVG/1.1/DTD/svg11.dtd">
<svg version="1.1" id="Layer_1" xmlns="http://www.w3.org/2000/svg" xmlns:xlink="http://www.w3.org/1999/xlink" x="0px" y="0px"
	 viewBox="42.8 376.8 519.3 36.2" enable-background="new 42.8 376.8 519.3 36.2" xml:space="preserve">
<g id="Layer_2_1_" display="none">
	<g id="city_x5F_tag.psd_1_" display="inline" opacity="0.64" enable-background="new    ">
		<g>
			<g>
				<defs>
					<rect id="SVGID_1_" x="-35" y="343.6" width="674" height="143.2"/>
				</defs>
				<clipPath id="SVGID_2_">
					<use xlink:href="#SVGID_1_"  overflow="visible"/>
				</clipPath>
				<g transform="matrix(1 0 0 1 0 0)" clip-path="url(#SVGID_2_)">
					
						<image overflow="visible" enable-background="new    " width="244" height="52" id="Layer_0_1_" xlink:href="B1EE42FB7DB3B6FC.png"  transform="matrix(2.7619 0 0 2.7619 -34.9578 343.4455)">
					</image>
				</g>
			</g>
		</g>
		<g>
			<g>
				<defs>
					<rect id="SVGID_3_" x="-35" y="343.6" width="674" height="143.2"/>
				</defs>
				<clipPath id="SVGID_4_">
					<use xlink:href="#SVGID_3_"  overflow="visible"/>
				</clipPath>
				<g id="Group_1" clip-path="url(#SVGID_4_)">
					<g id="AM_x5F_Chicago">
						<g>
							<path fill="#3C4242" d="M563,409.2l-15.3-30c-0.9-1.8-2.8-1.5-3.5-0.2l-15.1,30.2c-0.8,2.3,2.8,3.5,3.6,1.3l13.1-26.4
								l13.4,26.5C560.4,412.9,564,411.4,563,409.2z M397.5,379.4L384.9,399l-12.8-19.7c-1-1.9-3.6-1.3-3.6,0.9V410
								c0,2.5,3.8,2.5,3.8,0v-23.5L383,403c0.8,1.5,2.8,1.5,3.6,0l10.7-16.5v23.6c0,2.5,3.8,2.5,3.8,0v-29.8
								C401.1,378.1,398.7,377.5,397.5,379.4z M445.2,408.1h-20.6v-11.2h19.6c2.2,0,2.1-3.3,0-3.3h-19.6V382h20.6
								c2.2,0,2.3-3.3,0.1-3.3h-22.1c-1.5,0-2.4,1-2.4,2.2v28.4c0,1.2,0.9,2.3,2.4,2.3h22C447.7,411.5,447.4,408.1,445.2,408.1z
								 M477.6,378.6h-11.4c-1.3,0-2.4,1-2.4,2.2v28.5c0,1.2,1.1,2.2,2.4,2.2h11.4c10.4,0,15.6-8.2,15.6-16.5
								C493.2,386.8,488,378.6,477.6,378.6z M477.6,408.2h-10V382h10c7.8,0,11.8,6.6,11.8,13.1S485.5,408.2,477.6,408.2z
								 M510.2,379.3v31c0,2.5,3.9,2.4,3.9,0v-31C514.1,376.7,510.2,376.7,510.2,379.3z M548.8,399.3h-5.5c-2.5,0-2.4,3.9,0,3.9h5.5
								C551.4,403.1,551.4,399.3,548.8,399.3z"/>
						</g>
					</g>
					<g id="AM_x5F_Chicago_copy_2">
						<g>
							<path fill="#39B5B7" d="M120.2,379.8v18.3l0.5,7.8l-20.1-26.7c-1.3-1.9-4.2-1.5-4.2,1.1V410c0,2.6,4,2.5,4,0v-18.3l-0.4-7.1
								l19.5,25.9c1.1,1.8,4.7,1.6,4.7-1v-29.7C124.2,377.6,120.2,377.7,120.2,379.8z M142.8,379.3v31c0,2.5,3.9,2.4,3.9,0v-31
								C146.8,376.7,142.8,376.7,142.8,379.3z M65,379c-0.9-1.8-2.8-1.5-3.5-0.2L46.4,409c-0.8,2.3,2.8,3.5,3.6,1.3L63.2,384
								l13.4,26.5c1,2.2,4.7,0.8,3.7-1.5L65,379z M66.1,399.1h-5.5c-2.5,0-2.4,3.9,0,3.9h5.5C68.7,403,68.7,399.1,66.1,399.1z
								 M194.2,379.4L181.6,399l-12.8-19.7c-1-1.9-3.6-1.3-3.6,0.9V410c0,2.5,3.8,2.5,3.8,0v-23.5l10.7,16.5c0.8,1.5,2.8,1.5,3.6,0
								l10.7-16.5v23.6c0,2.5,3.8,2.5,3.8,0v-29.8C197.8,378.1,195.4,377.5,194.2,379.4z M284.3,378.5h-27.1c-2.5,0-2.5,3.6,0,3.6
								h11.6v28.1c0,1.3,1,1.9,1.9,1.9s2-0.6,2-1.9c0-9.3-0.1-18.8-0.1-28.1h11.7C286.9,382.1,286.9,378.5,284.3,378.5z
								 M300.8,379.3v31c0,2.5,3.9,2.4,3.9,0v-31C304.8,376.7,300.8,376.7,300.8,379.3z M348.7,403.5c-1.1,1.4-2.7,2.6-4.3,3.5
								c-2,1-4.1,1.5-6.1,1.5c-7.2,0-13.3-6-13.3-13.9c0-7.5,4.5-12,11-13c4.6-0.5,8.7,0.1,12.3,3.8c1.5,1.6,4.3-0.6,2.7-2.3
								c-4.1-4.3-9.5-5.8-15.6-5c-8,1.2-14.2,8-14.2,16.5c0,10.2,8,17.5,17,17.5c2.5,0,5.3-0.7,7.8-1.9c2.3-1.1,4.2-2.6,5.6-4.6
								C353,403.7,349.9,401.8,348.7,403.5z M232.8,379.2c-0.9-1.8-2.8-1.5-3.5-0.2l-15.1,30.2c-0.8,2.3,2.8,3.5,3.6,1.3l13.1-26.4
								l13.4,26.5c1,2.2,4.6,0.8,3.7-1.4L232.8,379.2z M233.8,399.3h-5.5c-2.5,0-2.4,3.9,0,3.9h5.5
								C236.4,403.1,236.4,399.3,233.8,399.3z"/>
						</g>
					</g>
					<g id="AM_x5F_Chicago_copy">
						<g>
							<path fill="#3C4242" d="M212.5,438.9c-0.4,0-0.7,0.2-0.9,0.5c-0.5,0.7-1.2,1.3-2,1.8c-0.9,0.5-1.9,0.8-2.8,0.8
								c-3.4,0-6.1-3.2-6.1-7.1c0-3.6,1.9-6.1,5-6.6c0.5-0.1,0.9-0.1,1.3-0.1c1.8,0,3.2,0.6,4.4,2c0.6,0.7,1.8,0.4,2.1-0.4
								c0.2-0.5,0.1-1-0.2-1.4c-2-2.4-4.7-3.3-7.9-2.8c-4.2,0.7-7.2,4.7-7.2,9.4c0,5.6,3.8,9.9,8.6,9.9c1.2,0,2.6-0.4,4-1.1
								c1.2-0.6,2.2-1.6,2.9-2.6c0.3-0.4,0.3-0.9,0.1-1.3C213.5,439.2,213,438.9,212.5,438.9z M235.8,426.8v7.3h-8.6v-7.3
								c0-1.8-2.6-1.9-2.6,0v16.4c0,0.4,0.2,0.8,0.4,1.1c0.7,0.7,2.2,0.5,2.2-1.1v-6.5h8.6v6.5c0,0.6,0.2,0.9,0.4,1.1
								s0.6,0.4,0.9,0.4c0.6,0,1.3-0.5,1.3-1.5v-16.4C238.4,424.9,235.8,424.9,235.8,426.8z M252.6,426.5v16.8
								c0,0.9,0.7,1.4,1.3,1.4c0.7,0,1.3-0.5,1.3-1.4v-16.8C255.2,424.6,252.6,424.5,252.6,426.5z M282.5,438.9
								c-0.4,0-0.7,0.2-0.9,0.5c-0.5,0.7-1.2,1.3-2,1.8c-0.9,0.5-1.9,0.8-2.8,0.8c-3.4,0-6.1-3.2-6.1-7.1c0-3.6,1.9-6.1,5-6.6
								c0.5-0.1,0.9-0.1,1.3-0.1c1.8,0,3.2,0.6,4.4,2c0.6,0.7,1.8,0.4,2.1-0.4c0.2-0.5,0.1-1-0.2-1.4c-2-2.4-4.7-3.3-7.9-2.8
								c-4.2,0.7-7.2,4.7-7.2,9.4c0,5.6,3.8,9.9,8.6,9.9c1.2,0,2.6-0.4,4-1.1c1.2-0.6,2.2-1.6,2.9-2.6c0.3-0.4,0.3-0.9,0.1-1.3
								C283.5,439.2,283,438.9,282.5,438.9z M304.9,426c-0.2-0.5-0.7-0.8-1.1-0.8c-0.5,0-1,0.3-1.2,0.8l-7.7,16.8
								c-0.2,0.4-0.1,0.9,0.1,1.2c0.2,0.4,0.7,0.7,1.2,0.7s0.9-0.3,1.1-0.7l2-4.2h9.1l1.9,4.1c0.2,0.5,0.7,0.8,1.2,0.8
								s1-0.3,1.2-0.7c0.2-0.4,0.2-0.8,0-1.2L304.9,426z M300.3,437.1l3.4-7.5l3.4,7.5H300.3z M338.3,433.8h-5.4
								c-0.8,0-1.2,0.7-1.2,1.4c0,0.3,0.1,0.7,0.3,0.9c0.2,0.2,0.4,0.4,0.9,0.4h4.2v3.2c-1,1.4-2.7,2.3-4.6,2.3l0,0
								c-3.1-0.1-5.8-3.3-5.9-7c0-3.7,2.6-6.1,5-6.7c0.4-0.1,0.8-0.2,1.3-0.2c1.6,0,3.1,0.7,4.1,2c0.6,0.8,1.7,0.5,2.1-0.4
								c0.2-0.5,0.1-1.1-0.2-1.5c-1.4-1.7-3.7-2.8-6.3-2.8c-0.5,0-1,0-1.4,0.1c-4,0.8-7.1,4.9-7.1,9.4c-0.1,2.6,0.8,5.1,2.4,7
								c1.6,1.8,3.7,2.8,6,2.8h0.1c2.6,0,5.2-1.4,6.7-3.5c0.3-0.3,0.4-0.7,0.4-1.2v-4.7C339.6,434.3,339.2,433.8,338.3,433.8z
								 M332.6,444.3L332.6,444.3L332.6,444.3L332.6,444.3z M362.1,425.4c-1.1-0.1-1.9-0.1-2.8,0c-4.2,0.7-7.1,4.6-7.1,9.3
								c0,5.9,3.5,10,8.6,10c4.9,0,8.5-4.3,8.5-10C369.4,430.1,366.3,426.2,362.1,425.4z M360.8,442c-3.5,0-6-2.9-6-7.1
								c0-3.6,1.8-6.2,4.8-6.7c0.3-0.1,0.7-0.1,1-0.1c0.4,0,0.7,0,1.1,0.1c2.9,0.5,5,3.3,5,6.7C366.7,439,364.3,442,360.8,442z"/>
						</g>
					</g>
				</g>
			</g>
		</g>
	</g>
</g>
<path fill="#FFFFFF" d="M395.3,410.4v-23.8l-10.7,16.7c-0.8,1.5-2.8,1.5-3.6,0l-10.7-16.6v23.7c0,2.5-3.8,2.5-3.8,0v-30.1
	c0-2.2,2.5-2.8,3.6-0.9l12.8,19.9l12.7-19.9c1.2-1.9,3.6-1.3,3.6,0.9v30.1C399.1,412.9,395.3,412.9,395.3,410.4L395.3,410.4z
	 M443.3,381.9h-20.7v11.8h19.7c2.1,0,2.2,3.3,0,3.3h-19.7v11.3h20.7c2.2,0,2.5,3.5,0,3.5h-22.1c-1.5,0-2.4-1-2.4-2.3v-28.7
	c0-1.2,0.9-2.2,2.4-2.2h22.1C445.6,378.6,445.5,381.9,443.3,381.9L443.3,381.9z M475.8,411.9h-11.4c-1.3,0-2.4-1-2.4-2.2v-28.8
	c0-1.2,1.1-2.2,2.4-2.2h11.4c10.4,0,15.6,8.3,15.6,16.6C491.4,403.5,486.2,411.9,475.8,411.9L475.8,411.9z M475.8,381.9h-10.1v26.5
	h10.1c7.9,0,11.8-6.6,11.8-13.2C487.6,388.6,483.7,381.9,475.8,381.9L475.8,381.9z M508.4,410.5v-31.3c0-2.6,3.9-2.6,3.9,0v31.3
	C512.4,412.9,508.4,413.1,508.4,410.5L508.4,410.5z M557.8,411l-13.5-26.8l-13.2,26.7c-0.8,2.1-4.4,1-3.6-1.4l15.1-30.5
	c0.7-1.4,2.6-1.7,3.5,0.2l15.3,30.3C562.4,411.7,558.8,413.2,557.8,411L557.8,411z M547.2,403.4h-5.5c-2.4,0-2.5-3.9,0-3.9h5.5
	C549.8,399.5,549.8,403.4,547.2,403.4L547.2,403.4z"/>
<path fill="#FFFFFF" d="M510.3,412.9c-1.2,0-2.4-0.7-2.4-2.4v-31.3c0-3.2,4.9-3.2,4.9,0v31.3c0,0.6-0.2,1.2-0.6,1.6
	C511.7,412.6,511.1,412.9,510.3,412.9z M510.3,377.8c-0.7,0-1.4,0.4-1.4,1.5v31.3c0,1,0.8,1.4,1.4,1.4c0.5,0,0.9-0.2,1.2-0.4
	c0.2-0.2,0.3-0.5,0.3-0.9v-31.3C511.8,378.2,511.1,377.8,510.3,377.8z M397.2,412.8c-1.2,0-2.4-0.8-2.4-2.4v-22.1l-9.8,15.3
	c-0.4,0.8-1.3,1.4-2.2,1.4s-1.8-0.5-2.2-1.4l-9.8-15.1v22c0,3.1-4.8,3.1-4.8,0v-30.1c0-1.6,1.2-2.5,2.3-2.5c0.9,0,1.7,0.5,2.2,1.4
	l12.4,19.2l12.3-19.2c0.5-0.9,1.4-1.4,2.3-1.4c1.1,0,2.3,0.9,2.3,2.5v30.1C399.6,412,398.4,412.8,397.2,412.8z M395.8,384.9v25.5
	c0,1,0.7,1.4,1.4,1.4c0.7,0,1.5-0.4,1.5-1.4v-30.1c0-1.1-0.7-1.5-1.3-1.5c-0.5,0-1,0.3-1.4,0.9l-13.1,20.6l-13.2-20.6
	c-0.3-0.6-0.8-0.9-1.4-0.9s-1.3,0.5-1.3,1.5v30.1c0,1,0.7,1.4,1.4,1.4c0.7,0,1.4-0.4,1.4-1.4V385l11.6,18c0.3,0.6,0.8,0.9,1.4,0.9
	s1.1-0.3,1.4-0.9L395.8,384.9z M559.5,412.6c-1,0-1.7-0.5-2.1-1.4l-13-25.9l-12.8,25.8c-0.3,0.9-1.1,1.4-2.1,1.4
	c-0.8,0-1.7-0.4-2.1-1.1c-0.4-0.6-0.5-1.4-0.3-2.1l15.1-30.6c0.4-0.9,1.3-1.4,2.2-1.4s1.8,0.6,2.2,1.6l15.3,30.3
	c0.3,0.7,0.3,1.5-0.1,2.1C561.3,412.1,560.4,412.6,559.5,412.6z M544.3,383.1l14,27.7c0.3,0.7,0.9,0.8,1.2,0.8
	c0.6,0,1.1-0.3,1.4-0.7c0.2-0.3,0.2-0.7,0-1.1l-15.3-30.3c-0.3-0.7-0.8-1.1-1.3-1.1s-1,0.3-1.3,0.9l-15.1,30.5
	c-0.1,0.4-0.1,0.8,0.2,1.2c0.3,0.4,0.8,0.6,1.3,0.6c0.3,0,0.9-0.1,1.2-0.8L544.3,383.1z M475.8,412.4h-11.4c-1.6,0-2.9-1.2-2.9-2.7
	v-28.8c0-1.5,1.3-2.7,2.9-2.7h11.4c11.1,0,16.1,8.9,16.1,17.1C491.9,406.5,483.8,412.4,475.8,412.4z M464.4,379.2
	c-1,0-1.9,0.8-1.9,1.7v28.8c0,0.9,0.9,1.7,1.9,1.7h11.4c7.3,0,15.1-5,15.1-16.1c0-7.8-4.7-16.1-15.1-16.1H464.4z M443.3,412.3h-22.1
	c-1.7,0-2.9-1.2-2.9-2.8v-28.7c0-1.6,1.2-2.7,2.9-2.7h22.1c0.8,0,1.4,0.4,1.6,0.7c0.4,0.4,0.5,0.9,0.5,1.5c0,1.1-0.8,2.2-2.2,2.2
	H423v10.8h19.2c1.4,0,2.1,1.1,2.1,2.2c0,1.1-0.7,2.1-2.1,2.1H423v10.3h20.2c1.5,0,2.3,1.2,2.3,2.3c0,0.6-0.2,1.1-0.6,1.5
	C444.7,411.9,444.2,412.3,443.3,412.3z M421.2,379.1c-1.3,0-1.9,0.9-1.9,1.7v28.7c0,1.1,0.7,1.8,1.9,1.8h22.1c0.4,0,0.8-0.1,1-0.4
	c0.2-0.2,0.3-0.5,0.3-0.8c0-0.5-0.3-1.3-1.3-1.3h-21.2v-12.3h20.2c0.8,0,1.1-0.6,1.1-1.1c0-0.6-0.3-1.2-1.1-1.2h-20.2v-12.8h21.2
	c0.8,0,1.2-0.6,1.2-1.2c0-0.3-0.1-0.6-0.3-0.8c-0.2-0.2-0.5-0.3-0.9-0.3L421.2,379.1L421.2,379.1z M475.8,408.9h-10.6v-27.5h10.6
	c5.9,0,12.3,4.3,12.3,13.8C488.1,401.8,484.3,408.9,475.8,408.9z M466.2,407.9h9.6c7.8,0,11.3-6.6,11.3-12.7
	c0-6.2-3.5-12.8-11.3-12.8h-9.6V407.9z M547.2,403.9h-5.5c-1.5,0-2.3-1.2-2.3-2.5c0-1.2,0.8-2.4,2.3-2.4h5.5c1.6,0,2.4,1.2,2.4,2.5
	S548.8,403.9,547.2,403.9z M541.7,400c-1,0-1.3,0.8-1.3,1.4c0,0.7,0.4,1.5,1.3,1.5h5.5c1,0,1.4-0.7,1.4-1.5s-0.4-1.5-1.4-1.5h-5.5
	V400z"/>
<path fill="#FFFFFF" d="M116.6,410.9L97,384.7l0.4,7.2v18.5c0,2.6-4,2.6-4,0v-30c0-2.6,2.9-3,4.2-1.1l20.2,26.9l-0.5-7.9v-18.5
	c0-2.2,4-2.3,4,0v30C121.3,412.5,117.7,412.7,116.6,410.9L116.6,410.9z"/>
<path fill="#FFFFFF" d="M95.4,412.8c-1.2,0-2.5-0.8-2.5-2.4v-30c0-1.9,1.3-2.8,2.6-2.8c1,0,1.9,0.5,2.5,1.4l19.2,25.5l-0.4-6.2
	v-18.5c0-2.8,5-2.9,5,0v30c0,1.9-1.5,2.8-2.9,2.8c-1.2,0-2.2-0.5-2.7-1.4l-18.6-24.8l0.3,5.5v18.5C97.9,412,96.6,412.8,95.4,412.8z
	 M95.5,378.6c-0.7,0-1.6,0.5-1.6,1.8v30c0,1,0.8,1.4,1.5,1.4s1.5-0.4,1.5-1.4v-18.5l-0.5-8.8l20.6,27.5c0.4,0.6,1.1,1,1.9,1
	c0.9,0,1.9-0.5,1.9-1.8v-30c0-0.9-0.9-1.2-1.5-1.2c-0.7,0-1.5,0.4-1.5,1.2v18.5l0.6,9.5l-21.2-28.2C96.8,379,96.1,378.6,95.5,378.6z
	"/>
<path fill="#FFFFFF" d="M140,410.5v-31.3c0-2.6,3.9-2.6,3.9,0v31.3C144,412.9,140,413.1,140,410.5L140,410.5z"/>
<path fill="#FFFFFF" d="M141.9,412.9c-1.2,0-2.4-0.7-2.4-2.4v-31.3c0-3.2,4.9-3.2,4.9,0v31.3c0,0.6-0.2,1.2-0.6,1.6
	C143.3,412.6,142.7,412.9,141.9,412.9z M141.9,377.8c-0.7,0-1.4,0.4-1.4,1.5v31.3c0,1,0.8,1.4,1.4,1.4c0.5,0,0.9-0.2,1.2-0.4
	c0.2-0.2,0.3-0.5,0.3-0.9v-31.3C143.4,378.2,142.7,377.8,141.9,377.8z"/>
<path fill="#FFFFFF" d="M73.7,410.8L60.2,384L47,410.7c-0.8,2.1-4.4,1-3.6-1.4l15.1-30.5c0.7-1.4,2.6-1.7,3.5,0.2l15.3,30.3
	C78.3,411.6,74.7,413.1,73.7,410.8L73.7,410.8z"/>
<path fill="#FFFFFF" d="M75.4,412.4c-1,0-1.8-0.5-2.2-1.4l-13-25.9l-12.8,25.8c-0.3,0.9-1.1,1.4-2.1,1.4c-0.9,0-1.7-0.4-2.1-1.1
	c-0.4-0.6-0.5-1.4-0.3-2.1L58,378.5c0.4-0.9,1.3-1.4,2.2-1.4s1.8,0.6,2.2,1.6L77.7,409c0.3,0.8,0.3,1.6-0.1,2.2
	C77.2,412,76.3,412.4,75.4,412.4z M60.2,382.9l14,27.7c0.3,0.8,0.9,0.9,1.3,0.9c0.5,0,1.1-0.3,1.4-0.7c0.2-0.4,0.3-0.8,0.1-1.2
	l-15.3-30.3c-0.3-0.7-0.8-1.1-1.3-1.1s-1,0.3-1.3,0.9L44,409.6c-0.1,0.4-0.1,0.8,0.2,1.2s0.8,0.6,1.3,0.6c0.3,0,0.9-0.1,1.2-0.8
	L60.2,382.9z"/>
<path fill="#FFFFFF" d="M63.1,403.3h-5.5c-2.4,0-2.5-3.9,0-3.9h5.5C65.7,399.3,65.7,403.3,63.1,403.3L63.1,403.3z"/>
<path fill="#FFFFFF" d="M63.1,403.8h-5.5c-1.5,0-2.3-1.2-2.3-2.5c0-0.6,0.2-1.2,0.6-1.6c0.4-0.5,1-0.8,1.8-0.8h5.5l0,0
	c0.8,0,1.4,0.3,1.9,0.8c0.4,0.4,0.6,1,0.6,1.6C65.6,402.5,64.7,403.8,63.1,403.8z M63.2,399.9h-5.6c-1,0-1.3,0.8-1.3,1.4
	c0,0.7,0.4,1.5,1.3,1.5h5.5c1,0,1.5-0.7,1.5-1.5c0-0.4-0.1-0.7-0.3-1C64,400,63.6,399.9,63.2,399.9z"/>
<path fill="#FFFFFF" d="M191.4,410.4v-23.8l-10.7,16.7c-0.8,1.5-2.8,1.5-3.6,0l-10.7-16.6v23.7c0,2.5-3.8,2.5-3.8,0v-30.1
	c0-2.2,2.5-2.8,3.6-0.9l12.8,19.9l12.7-19.9c1.2-1.9,3.6-1.3,3.6,0.9v30.1C195.2,412.9,191.4,412.9,191.4,410.4L191.4,410.4z"/>
<path fill="#FFFFFF" d="M193.3,412.8c-1.2,0-2.4-0.8-2.4-2.4v-22.1l-9.8,15.3c-0.4,0.8-1.3,1.4-2.2,1.4s-1.8-0.5-2.2-1.4l-9.8-15.1
	v22c0,3.1-4.8,3.1-4.8,0v-30.1c0-1.6,1.2-2.5,2.3-2.5c0.9,0,1.7,0.5,2.2,1.4l12.4,19.2l12.3-19.2c0.5-0.9,1.4-1.4,2.3-1.4
	c1.1,0,2.3,0.9,2.3,2.5v30.1C195.7,412,194.5,412.8,193.3,412.8z M191.9,384.9v25.5c0,1,0.7,1.4,1.4,1.4s1.4-0.4,1.5-1.4v-30.1
	c0-1.1-0.7-1.5-1.3-1.5c-0.5,0-1,0.3-1.4,0.9L179,400.2l-13.2-20.6c-0.3-0.6-0.8-0.9-1.4-0.9c-0.6,0-1.3,0.5-1.3,1.5v30.1
	c0,1,0.7,1.4,1.4,1.4s1.4-0.4,1.4-1.4V385l11.6,18c0.3,0.6,0.8,0.9,1.4,0.9s1.1-0.3,1.4-0.9L191.9,384.9z"/>
<path fill="#FFFFFF" d="M282,382.2h-11.7c0,9.4,0.1,19,0.1,28.4c0,1.3-1.1,1.9-2,1.9s-1.9-0.6-1.9-1.9v-28.4h-11.6
	c-2.5,0-2.5-3.6,0-3.6H282C284.5,378.5,284.5,382.2,282,382.2L282,382.2z"/>
<path fill="#FFFFFF" d="M268.4,413c-1.2,0-2.4-0.8-2.4-2.4v-27.9h-11.1c-1.6,0-2.4-1.2-2.4-2.3c0-0.6,0.2-1.2,0.6-1.6
	c0.3-0.3,0.9-0.7,1.8-0.7H282c1-0.1,1.5,0.4,1.8,0.7c0.4,0.4,0.6,1,0.6,1.5c0,1.2-0.8,2.3-2.4,2.3h-11.2c0,4.5,0,9.1,0,13.7
	c0,4.8,0.1,9.5,0.1,14.2C270.9,412.2,269.6,413,268.4,413z M282.1,379.1h-27.2c-0.4,0-0.8,0.1-1,0.4c-0.2,0.2-0.3,0.6-0.3,0.9
	c0,0.6,0.4,1.3,1.4,1.3h12v28.9c0,1.1,0.9,1.4,1.4,1.4c0.6,0,1.5-0.4,1.5-1.4c0-4.7,0-9.4,0-14.2s-0.1-9.5-0.1-14.2v-0.5H282
	c0.9,0,1.4-0.7,1.4-1.3c0-0.3-0.1-0.7-0.3-0.9C282.8,379.2,282.5,379.1,282.1,379.1z"/>
<path fill="#FFFFFF" d="M298.5,410.5v-31.3c0-2.6,3.9-2.6,3.9,0v31.3C302.4,412.9,298.5,413.1,298.5,410.5L298.5,410.5z"/>
<path fill="#FFFFFF" d="M300.4,412.9c-1.2,0-2.4-0.7-2.4-2.4v-31.3c0-3.2,4.9-3.2,4.9,0v31.3C302.9,412,301.6,412.9,300.4,412.9z
	 M300.5,377.8c-0.7,0-1.5,0.4-1.5,1.5v31.3c0,1,0.7,1.4,1.4,1.4c0.7,0,1.5-0.5,1.5-1.4v-31.3C301.9,378.2,301.2,377.8,300.5,377.8z"
	/>
<path fill="#FFFFFF" d="M346,385.5c-3.6-3.8-7.7-4.3-12.3-3.8c-6.4,1-11,5.5-11,13.1c0,7.9,6.1,14,13.4,14c1.9,0,4.1-0.5,6.1-1.5
	c1.6-0.8,3.2-2.1,4.3-3.5c1.2-1.8,4.4,0.2,3,2.1c-1.4,2-3.4,3.6-5.7,4.7c-2.5,1.2-5.3,1.9-7.9,1.9c-9,0-17-7.3-17-17.7
	c0-8.6,6.1-15.4,14.2-16.6c6.1-0.8,11.5,0.7,15.6,5C350.3,384.9,347.5,387.1,346,385.5L346,385.5z"/>
<path fill="#FFFFFF" d="M335.9,413c-9.8,0-17.5-8-17.5-18.2c0-8.6,6.2-15.8,14.6-17.1c6.6-0.9,12,0.9,16,5.1
	c0.6,0.7,0.8,1.5,0.5,2.2c-0.4,0.9-1.3,1.5-2.3,1.5c-0.6,0-1.2-0.2-1.6-0.7c-2.5-2.6-5.3-3.8-9.2-3.8c-0.8,0-1.7,0.1-2.7,0.2
	c-6.6,1-10.6,5.7-10.6,12.6c0,7.4,5.8,13.5,12.9,13.5c1.9,0,4-0.5,5.9-1.4c1.5-0.8,3.1-2,4.1-3.4c0.4-0.6,1-0.9,1.7-0.9
	c0.9,0,1.9,0.6,2.3,1.4c0.4,0.7,0.3,1.5-0.2,2.2c-1.4,2-3.4,3.7-5.9,4.9C341.4,412.3,338.5,413,335.9,413z M336.2,378.5
	c-1,0-2,0.1-3,0.2c-8,1.2-13.8,8-13.8,16.1c0,9.6,7.2,17.2,16.5,17.2c2.5,0,5.2-0.7,7.7-1.9c2.3-1.1,4.2-2.7,5.5-4.5
	c0.3-0.4,0.3-0.8,0.1-1.2c-0.2-0.5-0.9-0.9-1.4-0.9c-0.4,0-0.7,0.2-0.9,0.5c-1.2,1.5-2.8,2.8-4.5,3.7c-2,1-4.2,1.6-6.3,1.6
	c-7.7,0-13.9-6.5-13.9-14.5c0-7.4,4.3-12.5,11.4-13.6c1-0.1,2-0.2,2.8-0.2c4.1,0,7.3,1.3,9.9,4.1c0.7,0.7,1.9,0.3,2.2-0.5
	c0.2-0.4,0.1-0.8-0.3-1.1C345.1,380.2,341,378.5,336.2,378.5z"/>
<path fill="#FFFFFF" d="M241.9,411l-13.5-26.8l-13.2,26.7c-0.8,2.1-4.4,1-3.6-1.4l15.1-30.5c0.7-1.4,2.6-1.7,3.5,0.2l15.3,30.3
	C246.5,411.7,242.9,413.2,241.9,411L241.9,411z"/>
<path fill="#FFFFFF" d="M243.6,412.6c-1,0-1.7-0.5-2.1-1.4l-13-25.9l-12.8,25.8c-0.3,0.9-1.1,1.4-2.1,1.4c-0.9,0-1.7-0.4-2.1-1.1
	c-0.4-0.6-0.5-1.4-0.3-2.1l15.1-30.6c0.4-0.9,1.3-1.4,2.2-1.4s1.8,0.6,2.2,1.6l15.3,30.3c0.3,0.7,0.3,1.5-0.1,2.1
	C245.4,412.1,244.5,412.6,243.6,412.6z M228.4,383.1l14,27.7c0.3,0.7,0.9,0.8,1.2,0.8c0.6,0,1.1-0.3,1.4-0.7c0.2-0.3,0.2-0.7,0-1.1
	l-15.3-30.3c-0.3-0.7-0.8-1.1-1.3-1.1s-1,0.3-1.3,0.9L212,409.7c-0.1,0.4-0.1,0.8,0.2,1.2c0.3,0.4,0.8,0.6,1.3,0.6
	c0.3,0,0.9-0.1,1.2-0.8L228.4,383.1z"/>
<path fill="#FFFFFF" d="M231.3,403.4h-5.5c-2.4,0-2.5-3.9,0-3.9h5.5C233.9,399.5,233.9,403.4,231.3,403.4L231.3,403.4z"/>
<path fill="#FFFFFF" d="M231.3,403.9h-5.5c-1.5,0-2.3-1.2-2.3-2.5c0-0.6,0.2-1.2,0.6-1.6c0.4-0.5,1-0.8,1.8-0.8h5.5
	c1.6,0,2.5,1.2,2.5,2.5c0,0.6-0.2,1.2-0.6,1.7C232.8,403.5,232.2,403.9,231.3,403.9z M225.8,400c-1,0-1.3,0.8-1.3,1.4
	c0,0.7,0.4,1.5,1.3,1.5h5.5c1,0,1.5-0.7,1.5-1.5s-0.4-1.5-1.5-1.5h-5.5V400z"/>
<g id="AM_x5F_white" display="none">
	<g id="Layer_1_3_" display="inline">
		<g>
			<path fill="#FFFFFF" stroke="#FFFFFF" stroke-miterlimit="10" d="M395.3,410.4v-23.8l-10.7,16.7c-0.8,1.5-2.8,1.5-3.6,0
				l-10.7-16.6v23.7c0,2.5-3.8,2.5-3.8,0v-30.1c0-2.2,2.5-2.8,3.6-0.9l12.8,19.9l12.7-19.9c1.2-1.9,3.6-1.3,3.6,0.9v30.1
				C399.1,412.9,395.3,412.9,395.3,410.4L395.3,410.4z M443.3,381.9h-20.7v11.8h19.7c2.1,0,2.2,3.3,0,3.3h-19.7v11.3h20.7
				c2.2,0,2.5,3.5,0,3.5h-22.1c-1.5,0-2.4-1-2.4-2.3v-28.7c0-1.2,0.9-2.2,2.4-2.2h22.1C445.6,378.6,445.5,381.9,443.3,381.9
				L443.3,381.9z M475.8,411.9h-11.4c-1.3,0-2.4-1-2.4-2.2v-28.8c0-1.2,1.1-2.2,2.4-2.2h11.4c10.4,0,15.6,8.3,15.6,16.6
				C491.4,403.5,486.2,411.9,475.8,411.9L475.8,411.9z M475.8,381.9h-10.1v26.5h10.1c7.9,0,11.8-6.6,11.8-13.2
				C487.6,388.6,483.7,381.9,475.8,381.9L475.8,381.9z M508.4,410.5v-31.3c0-2.6,3.9-2.6,3.9,0v31.3
				C512.4,412.9,508.4,413.1,508.4,410.5L508.4,410.5z M557.8,411l-13.5-26.8l-13.2,26.7c-0.8,2.1-4.4,1-3.6-1.4l15.1-30.5
				c0.7-1.4,2.6-1.7,3.5,0.2l15.3,30.3C562.4,411.7,558.8,413.2,557.8,411L557.8,411z M547.2,403.4h-5.5c-2.4,0-2.5-3.9,0-3.9h5.5
				C549.8,399.5,549.8,403.4,547.2,403.4L547.2,403.4z"/>
		</g>
		<g>
			<path fill="#070707" d="M395.3,410.4v-23.8l-10.7,16.7c-0.8,1.5-2.8,1.5-3.6,0l-10.7-16.6v23.7c0,2.5-3.8,2.5-3.8,0v-30.1
				c0-2.2,2.5-2.8,3.6-0.9l12.8,19.9l12.7-19.9c1.2-1.9,3.6-1.3,3.6,0.9v30.1C399.1,412.9,395.3,412.9,395.3,410.4L395.3,410.4z
				 M443.3,381.9h-20.7v11.8h19.7c2.1,0,2.2,3.3,0,3.3h-19.7v11.3h20.7c2.2,0,2.5,3.5,0,3.5h-22.1c-1.5,0-2.4-1-2.4-2.3v-28.7
				c0-1.2,0.9-2.2,2.4-2.2h22.1C445.6,378.6,445.5,381.9,443.3,381.9L443.3,381.9z M475.8,411.9h-11.4c-1.3,0-2.4-1-2.4-2.2v-28.8
				c0-1.2,1.1-2.2,2.4-2.2h11.4c10.4,0,15.6,8.3,15.6,16.6C491.4,403.5,486.2,411.9,475.8,411.9L475.8,411.9z M475.8,381.9h-10.1
				v26.5h10.1c7.9,0,11.8-6.6,11.8-13.2C487.6,388.6,483.7,381.9,475.8,381.9L475.8,381.9z M508.4,410.5v-31.3c0-2.6,3.9-2.6,3.9,0
				v31.3C512.4,412.9,508.4,413.1,508.4,410.5L508.4,410.5z M557.8,411l-13.5-26.8l-13.2,26.7c-0.8,2.1-4.4,1-3.6-1.4l15.1-30.5
				c0.7-1.4,2.6-1.7,3.5,0.2l15.3,30.3C562.4,411.7,558.8,413.2,557.8,411L557.8,411z M547.2,403.4h-5.5c-2.4,0-2.5-3.9,0-3.9h5.5
				C549.8,399.5,549.8,403.4,547.2,403.4L547.2,403.4z"/>
		</g>
		<g>
			<path fill="none" stroke="#000000" stroke-miterlimit="10" d="M395.3,410.4v-23.8l-10.7,16.7c-0.8,1.5-2.8,1.5-3.6,0l-10.7-16.6
				v23.7c0,2.5-3.8,2.5-3.8,0v-30.1c0-2.2,2.5-2.8,3.6-0.9l12.8,19.9l12.7-19.9c1.2-1.9,3.6-1.3,3.6,0.9v30.1
				C399.1,412.9,395.3,412.9,395.3,410.4L395.3,410.4z M443.3,381.9h-20.7v11.8h19.7c2.1,0,2.2,3.3,0,3.3h-19.7v11.3h20.7
				c2.2,0,2.5,3.5,0,3.5h-22.1c-1.5,0-2.4-1-2.4-2.3v-28.7c0-1.2,0.9-2.2,2.4-2.2h22.1C445.6,378.6,445.5,381.9,443.3,381.9
				L443.3,381.9z M475.8,411.9h-11.4c-1.3,0-2.4-1-2.4-2.2v-28.8c0-1.2,1.1-2.2,2.4-2.2h11.4c10.4,0,15.6,8.3,15.6,16.6
				C491.4,403.5,486.2,411.9,475.8,411.9L475.8,411.9z M475.8,381.9h-10.1v26.5h10.1c7.9,0,11.8-6.6,11.8-13.2
				C487.6,388.6,483.7,381.9,475.8,381.9L475.8,381.9z M508.4,410.5v-31.3c0-2.6,3.9-2.6,3.9,0v31.3
				C512.4,412.9,508.4,413.1,508.4,410.5L508.4,410.5z M557.8,411l-13.5-26.8l-13.2,26.7c-0.8,2.1-4.4,1-3.6-1.4l15.1-30.5
				c0.7-1.4,2.6-1.7,3.5,0.2l15.3,30.3C562.4,411.7,558.8,413.2,557.8,411L557.8,411z M547.2,403.4h-5.5c-2.4,0-2.5-3.9,0-3.9h5.5
				C549.8,399.5,549.8,403.4,547.2,403.4L547.2,403.4z"/>
		</g>
	</g>
	<g id="Layer_2_3_" display="inline">
		<g>
			<path fill="#FFFFFF" stroke="#FFFFFF" stroke-miterlimit="10" d="M116.6,410.9L97,384.7l0.4,7.2v18.5c0,2.6-4,2.6-4,0v-30
				c0-2.6,2.9-3,4.2-1.1l20.2,26.9l-0.5-7.9v-18.5c0-2.2,4-2.3,4,0v30C121.3,412.5,117.7,412.7,116.6,410.9L116.6,410.9z"/>
			<path fill="#FFFFFF" stroke="#FFFFFF" stroke-miterlimit="10" d="M140,410.5v-31.3c0-2.6,3.9-2.6,3.9,0v31.3
				C144,412.9,140,413.1,140,410.5L140,410.5z"/>
			<path fill="#FFFFFF" stroke="#FFFFFF" stroke-miterlimit="10" d="M73.7,410.8L60.2,384L47,410.7c-0.8,2.1-4.4,1-3.6-1.4
				l15.1-30.5c0.7-1.4,2.6-1.7,3.5,0.2l15.3,30.3C78.3,411.6,74.7,413.1,73.7,410.8L73.7,410.8z"/>
			<path fill="#FFFFFF" stroke="#FFFFFF" stroke-miterlimit="10" d="M63.1,403.3h-5.5c-2.4,0-2.5-3.9,0-3.9h5.5
				C65.7,399.3,65.7,403.3,63.1,403.3L63.1,403.3z"/>
			<path fill="#FFFFFF" stroke="#FFFFFF" stroke-miterlimit="10" d="M191.4,410.4v-23.8l-10.7,16.7c-0.8,1.5-2.8,1.5-3.6,0
				l-10.7-16.6v23.7c0,2.5-3.8,2.5-3.8,0v-30.1c0-2.2,2.5-2.8,3.6-0.9l12.8,19.9l12.7-19.9c1.2-1.9,3.6-1.3,3.6,0.9v30.1
				C195.2,412.9,191.4,412.9,191.4,410.4L191.4,410.4z"/>
			<path fill="#FFFFFF" stroke="#FFFFFF" stroke-miterlimit="10" d="M282,382.2h-11.7c0,9.4,0.1,19,0.1,28.4c0,1.3-1.1,1.9-2,1.9
				s-1.9-0.6-1.9-1.9v-28.4h-11.6c-2.5,0-2.5-3.6,0-3.6H282C284.5,378.5,284.5,382.2,282,382.2L282,382.2z"/>
			<path fill="#FFFFFF" stroke="#FFFFFF" stroke-miterlimit="10" d="M298.5,410.5v-31.3c0-2.6,3.9-2.6,3.9,0v31.3
				C302.4,412.9,298.5,413.1,298.5,410.5L298.5,410.5z"/>
			<path fill="#FFFFFF" stroke="#FFFFFF" stroke-miterlimit="10" d="M346,385.5c-3.6-3.8-7.7-4.3-12.3-3.8c-6.4,1-11,5.5-11,13.1
				c0,7.9,6.1,14,13.4,14c1.9,0,4.1-0.5,6.1-1.5c1.6-0.8,3.2-2.1,4.3-3.5c1.2-1.8,4.4,0.2,3,2.1c-1.4,2-3.4,3.6-5.7,4.7
				c-2.5,1.2-5.3,1.9-7.9,1.9c-9,0-17-7.3-17-17.7c0-8.6,6.1-15.4,14.2-16.6c6.1-0.8,11.5,0.7,15.6,5
				C350.3,384.9,347.5,387.1,346,385.5L346,385.5z"/>
			<path fill="#FFFFFF" stroke="#FFFFFF" stroke-miterlimit="10" d="M241.9,411l-13.5-26.8l-13.2,26.7c-0.8,2.1-4.4,1-3.6-1.4
				l15.1-30.5c0.7-1.4,2.6-1.7,3.5,0.2l15.3,30.3C246.5,411.7,242.9,413.2,241.9,411L241.9,411z"/>
			<path fill="#FFFFFF" stroke="#FFFFFF" stroke-miterlimit="10" d="M231.3,403.4h-5.5c-2.4,0-2.5-3.9,0-3.9h5.5
				C233.9,399.5,233.9,403.4,231.3,403.4L231.3,403.4z"/>
		</g>
		<g>
			<path fill="#070707" d="M116.6,410.9L97,384.7l0.4,7.2v18.5c0,2.6-4,2.6-4,0v-30c0-2.6,2.9-3,4.2-1.1l20.2,26.9l-0.5-7.9v-18.5
				c0-2.2,4-2.3,4,0v30C121.3,412.5,117.7,412.7,116.6,410.9L116.6,410.9z"/>
			<path fill="#070707" d="M140,410.5v-31.3c0-2.6,3.9-2.6,3.9,0v31.3C144,412.9,140,413.1,140,410.5L140,410.5z"/>
			<path fill="#070707" d="M73.7,410.8L60.2,384L47,410.7c-0.8,2.1-4.4,1-3.6-1.4l15.1-30.5c0.7-1.4,2.6-1.7,3.5,0.2l15.3,30.3
				C78.3,411.6,74.7,413.1,73.7,410.8L73.7,410.8z"/>
			<path fill="#070707" d="M63.1,403.3h-5.5c-2.4,0-2.5-3.9,0-3.9h5.5C65.7,399.3,65.7,403.3,63.1,403.3L63.1,403.3z"/>
			<path fill="#070707" d="M191.4,410.4v-23.8l-10.7,16.7c-0.8,1.5-2.8,1.5-3.6,0l-10.7-16.6v23.7c0,2.5-3.8,2.5-3.8,0v-30.1
				c0-2.2,2.5-2.8,3.6-0.9l12.8,19.9l12.7-19.9c1.2-1.9,3.6-1.3,3.6,0.9v30.1C195.2,412.9,191.4,412.9,191.4,410.4L191.4,410.4z"/>
			<path fill="#070707" d="M282,382.2h-11.7c0,9.4,0.1,19,0.1,28.4c0,1.3-1.1,1.9-2,1.9s-1.9-0.6-1.9-1.9v-28.4h-11.6
				c-2.5,0-2.5-3.6,0-3.6H282C284.5,378.5,284.5,382.2,282,382.2L282,382.2z"/>
			<path fill="#070707" d="M298.5,410.5v-31.3c0-2.6,3.9-2.6,3.9,0v31.3C302.4,412.9,298.5,413.1,298.5,410.5L298.5,410.5z"/>
			<path fill="#070707" d="M346,385.5c-3.6-3.8-7.7-4.3-12.3-3.8c-6.4,1-11,5.5-11,13.1c0,7.9,6.1,14,13.4,14c1.9,0,4.1-0.5,6.1-1.5
				c1.6-0.8,3.2-2.1,4.3-3.5c1.2-1.8,4.4,0.2,3,2.1c-1.4,2-3.4,3.6-5.7,4.7c-2.5,1.2-5.3,1.9-7.9,1.9c-9,0-17-7.3-17-17.7
				c0-8.6,6.1-15.4,14.2-16.6c6.1-0.8,11.5,0.7,15.6,5C350.3,384.9,347.5,387.1,346,385.5L346,385.5z"/>
			<path fill="#070707" d="M241.9,411l-13.5-26.8l-13.2,26.7c-0.8,2.1-4.4,1-3.6-1.4l15.1-30.5c0.7-1.4,2.6-1.7,3.5,0.2l15.3,30.3
				C246.5,411.7,242.9,413.2,241.9,411L241.9,411z"/>
			<path fill="#070707" d="M231.3,403.4h-5.5c-2.4,0-2.5-3.9,0-3.9h5.5C233.9,399.5,233.9,403.4,231.3,403.4L231.3,403.4z"/>
		</g>
		<g>
			<path fill="none" stroke="#000000" stroke-miterlimit="10" d="M116.6,410.9L97,384.7l0.4,7.2v18.5c0,2.6-4,2.6-4,0v-30
				c0-2.6,2.9-3,4.2-1.1l20.2,26.9l-0.5-7.9v-18.5c0-2.2,4-2.3,4,0v30C121.3,412.5,117.7,412.7,116.6,410.9L116.6,410.9z"/>
			<path fill="none" stroke="#000000" stroke-miterlimit="10" d="M140,410.5v-31.3c0-2.6,3.9-2.6,3.9,0v31.3
				C144,412.9,140,413.1,140,410.5L140,410.5z"/>
			<path fill="none" stroke="#000000" stroke-miterlimit="10" d="M73.7,410.8L60.2,384L47,410.7c-0.8,2.1-4.4,1-3.6-1.4l15.1-30.5
				c0.7-1.4,2.6-1.7,3.5,0.2l15.3,30.3C78.3,411.6,74.7,413.1,73.7,410.8L73.7,410.8z"/>
			<path fill="none" stroke="#000000" stroke-miterlimit="10" d="M63.1,403.3h-5.5c-2.4,0-2.5-3.9,0-3.9h5.5
				C65.7,399.3,65.7,403.3,63.1,403.3L63.1,403.3z"/>
			<path fill="none" stroke="#000000" stroke-miterlimit="10" d="M191.4,410.4v-23.8l-10.7,16.7c-0.8,1.5-2.8,1.5-3.6,0l-10.7-16.6
				v23.7c0,2.5-3.8,2.5-3.8,0v-30.1c0-2.2,2.5-2.8,3.6-0.9l12.8,19.9l12.7-19.9c1.2-1.9,3.6-1.3,3.6,0.9v30.1
				C195.2,412.9,191.4,412.9,191.4,410.4L191.4,410.4z"/>
			<path fill="none" stroke="#000000" stroke-miterlimit="10" d="M282,382.2h-11.7c0,9.4,0.1,19,0.1,28.4c0,1.3-1.1,1.9-2,1.9
				s-1.9-0.6-1.9-1.9v-28.4h-11.6c-2.5,0-2.5-3.6,0-3.6H282C284.5,378.5,284.5,382.2,282,382.2L282,382.2z"/>
			<path fill="none" stroke="#000000" stroke-miterlimit="10" d="M298.5,410.5v-31.3c0-2.6,3.9-2.6,3.9,0v31.3
				C302.4,412.9,298.5,413.1,298.5,410.5L298.5,410.5z"/>
			<path fill="none" stroke="#000000" stroke-miterlimit="10" d="M346,385.5c-3.6-3.8-7.7-4.3-12.3-3.8c-6.4,1-11,5.5-11,13.1
				c0,7.9,6.1,14,13.4,14c1.9,0,4.1-0.5,6.1-1.5c1.6-0.8,3.2-2.1,4.3-3.5c1.2-1.8,4.4,0.2,3,2.1c-1.4,2-3.4,3.6-5.7,4.7
				c-2.5,1.2-5.3,1.9-7.9,1.9c-9,0-17-7.3-17-17.7c0-8.6,6.1-15.4,14.2-16.6c6.1-0.8,11.5,0.7,15.6,5
				C350.3,384.9,347.5,387.1,346,385.5L346,385.5z"/>
			<path fill="none" stroke="#000000" stroke-miterlimit="10" d="M241.9,411l-13.5-26.8l-13.2,26.7c-0.8,2.1-4.4,1-3.6-1.4
				l15.1-30.5c0.7-1.4,2.6-1.7,3.5,0.2l15.3,30.3C246.5,411.7,242.9,413.2,241.9,411L241.9,411z"/>
			<path fill="none" stroke="#000000" stroke-miterlimit="10" d="M231.3,403.4h-5.5c-2.4,0-2.5-3.9,0-3.9h5.5
				C233.9,399.5,233.9,403.4,231.3,403.4L231.3,403.4z"/>
		</g>
	</g>
</g>
<g id="Layer_6" display="none">
</g>
<g id="london" display="none">
	<path display="inline" fill="#3C4242" stroke="#3C4242" stroke-miterlimit="10" d="M243,441.5c-0.2,0.2-0.4,0.3-0.9,0.3h-9.6
		c-0.8,0-1.2-0.4-1.2-1.2v-13.4c0-1.5,2.4-1.5,2.4,0v12.4h8.4c0.8,0,1.2,0.6,1.2,1.1C243.3,441.1,243.2,441.3,243,441.5L243,441.5z
		 M255.4,442.1c-4.7,0-7.9-3.4-7.9-8.3c0-4,2.7-7.1,6.5-7.7c0.8-0.1,1.6-0.1,2.6,0c3.9,0.6,6.7,3.9,6.7,7.7
		C263.2,438.6,259.8,442.1,255.4,442.1L255.4,442.1z M256.2,428.4c-0.3,0-0.7-0.1-1-0.1s-0.6,0-0.9,0.1c-2.7,0.4-4.4,2.5-4.4,5.5
		c0,3.5,2.2,5.9,5.5,5.9c3.2,0,5.4-2.4,5.4-5.9C260.8,431.1,258.9,428.8,256.2,428.4L256.2,428.4z M282,442c-0.6,0-1.1-0.3-1.3-0.7
		l-8-10.7l0.1,2.1v8.3c0,0.8-0.6,1.2-1.2,1.2c-0.3,0-0.6-0.1-0.8-0.3c-0.3-0.2-0.4-0.5-0.4-0.9v-13.4c0-0.9,0.6-1.4,1.3-1.4
		c0.5,0,1,0.3,1.2,0.7l8.3,11.1l-0.2-2.4v-8.3c0-0.6,0.5-1.1,1.2-1.1s1.2,0.5,1.2,1.1v13.4C283.4,441.5,282.7,442,282,442L282,442z
		 M297.1,441.9H292c-0.8,0-1.4-0.6-1.4-1.4v-12.8c0-0.7,0.6-1.3,1.4-1.3h5.1c5,0,7.3,4,7.3,7.8C304.4,437.8,302.1,441.9,297.1,441.9
		L297.1,441.9z M297.1,428.5H293v11.2h4.1c3.4,0,4.9-2.9,4.9-5.6S300.4,428.5,297.1,428.5L297.1,428.5z M318.4,442.1
		c-4.7,0-7.9-3.4-7.9-8.3c0-4,2.7-7.1,6.5-7.7c0.8-0.1,1.6-0.1,2.6,0c3.9,0.6,6.7,3.9,6.7,7.7C326.2,438.6,322.9,442.1,318.4,442.1
		L318.4,442.1z M319.2,428.4c-0.3,0-0.7-0.1-1-0.1s-0.6,0-0.9,0.1c-2.7,0.4-4.4,2.5-4.4,5.5c0,3.5,2.2,5.9,5.5,5.9
		c3.2,0,5.4-2.4,5.4-5.9C323.8,431.1,321.9,428.8,319.2,428.4L319.2,428.4z M345,442c-0.6,0-1.1-0.3-1.3-0.7l-8-10.7l0.1,2.1v8.3
		c0,0.8-0.6,1.2-1.2,1.2c-0.3,0-0.6-0.1-0.8-0.3c-0.3-0.2-0.4-0.5-0.4-0.9v-13.4c0-0.9,0.6-1.4,1.3-1.4c0.5,0,1,0.3,1.2,0.7
		l8.3,11.1l-0.2-2.4v-8.3c0-0.6,0.5-1.1,1.2-1.1s1.2,0.5,1.2,1.1v13.4C346.4,441.5,345.7,442,345,442L345,442z"/>
</g>
<g id="chicago" display="none">
	<path display="inline" fill="#3C4242" stroke="#3C4242" stroke-miterlimit="10" d="M215,441.7c0.9,0,2-0.2,2.9-0.7
		c0.7-0.4,1.5-1,2-1.6c0.2-0.3,0.6-0.5,1-0.5c0.5,0,1.1,0.3,1.3,0.7s0.2,0.8-0.1,1.2c-0.7,1-1.7,1.8-3,2.5c-1.4,0.7-2.8,1-4.1,1
		c-5,0-8.9-4-8.9-9.2c0-4.4,3.1-8,7.4-8.7c3.4-0.5,6.1,0.4,8.1,2.6c0.3,0.4,0.4,0.8,0.2,1.3c-0.3,0.8-1.6,1.1-2.1,0.4
		c-1.2-1.2-2.6-1.9-4.5-1.9c-0.4,0-0.8,0-1.3,0.1c-3.2,0.5-5.2,2.8-5.2,6.2C208.7,438.7,211.5,441.7,215,441.7L215,441.7z
		 M243.3,444.2c-0.3,0-0.7-0.2-0.9-0.3c-0.2-0.2-0.4-0.5-0.4-1v-6.1h-8.9v6.1c0,1.4-1.5,1.6-2.2,1c-0.2-0.2-0.4-0.6-0.4-1v-15.3
		c0-1.7,2.6-1.7,2.6,0v6.7h8.9v-6.7c0-1.7,2.7-1.7,2.7,0v15.2C244.6,443.7,244,444.2,243.3,444.2L243.3,444.2z M259.7,444.2
		c-0.7,0-1.3-0.4-1.3-1.3v-15.6c0-1.8,2.7-1.8,2.7,0v15.6C261.1,443.8,260.4,444.2,259.7,444.2L259.7,444.2z M282.6,441.7
		c0.9,0,2-0.2,2.9-0.7c0.7-0.4,1.5-1,2-1.6c0.2-0.3,0.6-0.5,1-0.5c0.5,0,1.1,0.3,1.3,0.7c0.2,0.4,0.2,0.8-0.1,1.2
		c-0.7,1-1.7,1.8-3,2.5c-1.4,0.7-2.8,1-4.1,1c-5,0-8.9-4-8.9-9.2c0-4.4,3.1-8,7.4-8.7c3.4-0.5,6.1,0.4,8.1,2.6
		c0.3,0.4,0.4,0.8,0.2,1.3c-0.3,0.8-1.6,1.1-2.1,0.4c-1.2-1.2-2.6-1.9-4.5-1.9c-0.4,0-0.8,0-1.3,0.1c-3.2,0.5-5.2,2.8-5.2,6.2
		C276.2,438.7,279,441.7,282.6,441.7L282.6,441.7z M318.5,443.5c-0.2,0.4-0.7,0.7-1.3,0.7s-1-0.2-1.2-0.7l-1.9-3.9h-9.4l-2,3.9
		c-0.2,0.4-0.7,0.7-1.2,0.7s-1-0.2-1.2-0.7c-0.2-0.3-0.2-0.7-0.1-1.2l7.9-15.5c0.2-0.4,0.7-0.7,1.2-0.7s0.9,0.2,1.2,0.7l7.9,15.4
		C318.7,442.7,318.7,443.2,318.5,443.5L318.5,443.5z M309.4,430.3l-3.5,7h7L309.4,430.3L309.4,430.3z M345.1,440.9
		c-1.5,2-4.1,3.2-6.8,3.2h-0.1c-2.3,0-4.5-1-6.2-2.6c-1.6-1.7-2.5-4-2.5-6.5c0-4.2,3.1-8,7.3-8.7c0.4-0.1,0.9-0.1,1.4-0.1
		c2.6,0,5,1,6.4,2.5c0.3,0.4,0.4,0.9,0.2,1.4c-0.4,0.8-1.6,1.1-2.1,0.3c-1-1.2-2.5-1.8-4.2-1.8c-0.4,0-0.9,0.1-1.3,0.2
		c-2.5,0.6-5.1,2.8-5.1,6.2c0.1,3.5,2.8,6.4,6,6.4l0,0c1.9,0,3.7-0.8,4.7-2.1v-2.8h-4.4c-0.5,0-0.8-0.2-1-0.4s-0.3-0.5-0.3-0.8
		c0-0.7,0.4-1.3,1.2-1.3h5.5c0.9,0,1.4,0.5,1.4,1.3v4.4C345.6,440.4,345.5,440.7,345.1,440.9L345.1,440.9z M367.6,444.3
		c-5.3,0-8.9-3.8-8.9-9.3c0-4.4,3-8,7.2-8.6c0.9-0.2,1.8-0.2,2.9,0c4.4,0.7,7.5,4.3,7.5,8.6C376.4,440.3,372.6,444.3,367.6,444.3
		L367.6,444.3z M368.6,428.9c-0.3-0.1-0.7-0.1-1.1-0.1s-0.7,0-1.1,0.1c-3,0.5-4.9,2.9-4.9,6.2c0,3.9,2.5,6.6,6.1,6.6
		c3.5,0,6.1-2.7,6.1-6.6C373.7,431.9,371.5,429.4,368.6,428.9L368.6,428.9z"/>
</g>
<g id="berlin" display="none">
	<path display="inline" fill="#404040" stroke="#3C4242" stroke-miterlimit="10" d="M241.7,438.5c0,3.5-2.6,5.4-7.3,5.4h-6.9
		c-0.8,0-1.4-0.6-1.4-1.3l0.1-14.8c0-0.7,0.6-1.3,1.4-1.3h6.3c3.2,0,6.6,1.3,6.6,4.9c0,1.3-0.5,2.4-1.5,3.1
		C240.7,435.1,241.7,436.6,241.7,438.5L241.7,438.5z M233.9,428.7H229v4.6h5c1.8,0,3.9-0.4,3.9-2.1
		C237.9,428.9,234.3,428.7,233.9,428.7L233.9,428.7z M235.2,435.8h-6.3v5.4h5.5c3,0,4.5-1,4.5-2.9
		C238.9,436.1,236.3,435.9,235.2,435.8L235.2,435.8z M264.8,428.9h-10v5.1h9.5c0.8,0,1.2,0.6,1.2,1.2c0,0.3-0.1,0.6-0.3,0.8
		c-0.2,0.3-0.5,0.4-0.9,0.4h-9.5v4.9h10c0.8,0,1.3,0.7,1.3,1.3c0,0.3-0.1,0.6-0.3,0.8c-0.2,0.2-0.5,0.4-1,0.4l-11.1-0.1
		c-0.9,0-1.6-0.7-1.6-1.5l0.1-14.4c0-0.9,0.7-1.5,1.6-1.5l11.1,0.1c0.5,0,0.8,0.2,0.9,0.4c0.2,0.2,0.3,0.5,0.3,0.8
		C266,428.2,265.6,428.9,264.8,428.9L264.8,428.9z M287.5,437.9l3.8,4.1c0.4,0.4,0.6,0.9,0.4,1.4s-0.7,0.8-1.2,0.8
		c-0.4,0-0.7-0.2-1-0.4l-5.2-5.6h-4.6v4.7c0,1.3-1.5,1.6-2.3,1c-0.3-0.2-0.4-0.6-0.4-1l0.1-15.1c0-0.8,0.6-1.3,1.4-1.3h6.3
		c5,0,7.3,3,7.3,6C291.9,435.3,290.3,437.2,287.5,437.9L287.5,437.9z M284.7,429h-4.9v6.7h4.9c1.7,0,3-0.4,3.8-1.2
		c0.5-0.5,0.8-1.2,0.7-2C289.2,430.5,287.4,429,284.7,429L284.7,429z M315.7,443.7c-0.2,0.2-0.5,0.4-1,0.4l-10.8-0.1
		c-0.9,0-1.4-0.5-1.4-1.4l0.1-15.1c0-1.7,2.7-1.7,2.7,0l-0.1,13.9h9.5c0.9,0,1.4,0.6,1.4,1.3C316.1,443.2,315.9,443.5,315.7,443.7
		L315.7,443.7z M327,444.5c-0.7,0-1.4-0.5-1.4-1.3l0.1-15.7c0-1.8,2.8-1.8,2.8,0l-0.1,15.7C328.4,444,327.7,444.5,327,444.5
		L327,444.5z M353.4,444.4c-0.6,0-1.2-0.3-1.5-0.8l-9-12.1l0.1,2.3v9.3c0,0.9-0.7,1.4-1.4,1.4c-0.4,0-0.7-0.1-0.9-0.3
		c-0.3-0.3-0.4-0.6-0.4-1l0.1-15c0-1,0.7-1.5,1.4-1.5c0.6,0,1.1,0.3,1.4,0.8l9.2,12.4l-0.2-2.6V428c0-0.7,0.6-1.2,1.4-1.2
		s1.4,0.5,1.4,1.2l-0.1,15.1C355,443.9,354.2,444.4,353.4,444.4L353.4,444.4z"/>
	<g id="Layer_1_2_" display="inline">
		<path fill="#3C4242" stroke="#3C4242" stroke-miterlimit="10" d="M395.3,410.4v-23.8l-10.7,16.7c-0.8,1.5-2.8,1.5-3.6,0
			l-10.7-16.6v23.7c0,2.5-3.8,2.5-3.8,0v-30.1c0-2.2,2.5-2.8,3.6-0.9l12.8,19.9l12.7-19.9c1.2-1.9,3.6-1.3,3.6,0.9v30.1
			C399.1,412.9,395.3,412.9,395.3,410.4L395.3,410.4z M443.3,381.9h-20.7v11.8h19.7c2.1,0,2.2,3.3,0,3.3h-19.7v11.3h20.7
			c2.2,0,2.5,3.5,0,3.5h-22.1c-1.5,0-2.4-1-2.4-2.3v-28.7c0-1.2,0.9-2.2,2.4-2.2h22.1C445.6,378.6,445.5,381.9,443.3,381.9
			L443.3,381.9z M475.8,411.9h-11.4c-1.3,0-2.4-1-2.4-2.2v-28.8c0-1.2,1.1-2.2,2.4-2.2h11.4c10.4,0,15.6,8.3,15.6,16.6
			C491.4,403.5,486.2,411.9,475.8,411.9L475.8,411.9z M475.8,381.9h-10.1v26.5h10.1c7.9,0,11.8-6.6,11.8-13.2
			C487.6,388.6,483.7,381.9,475.8,381.9L475.8,381.9z M508.4,410.5v-31.3c0-2.6,3.9-2.6,3.9,0v31.3
			C512.4,412.9,508.4,413.1,508.4,410.5L508.4,410.5z M557.8,411l-13.5-26.8l-13.2,26.7c-0.8,2.1-4.4,1-3.6-1.4l15.1-30.5
			c0.7-1.4,2.6-1.7,3.5,0.2l15.3,30.3C562.4,411.7,558.8,413.2,557.8,411L557.8,411z M547.2,403.4h-5.5c-2.4,0-2.5-3.9,0-3.9h5.5
			C549.8,399.5,549.8,403.4,547.2,403.4L547.2,403.4z"/>
	</g>
	<g id="Layer_2_2_" display="inline">
		<path fill="#3DB6B8" stroke="#3DB6B8" stroke-miterlimit="10" d="M116.6,410.9L97,384.7l0.4,7.2v18.5c0,2.6-4,2.6-4,0v-30
			c0-2.6,2.9-3,4.2-1.1l20.2,26.9l-0.5-7.9v-18.5c0-2.2,4-2.3,4,0v30C121.3,412.5,117.7,412.7,116.6,410.9L116.6,410.9z"/>
		<path fill="#3DB6B8" stroke="#3DB6B8" stroke-miterlimit="10" d="M140,410.5v-31.3c0-2.6,3.9-2.6,3.9,0v31.3
			C144,412.9,140,413.1,140,410.5L140,410.5z"/>
		<path fill="#3DB6B8" stroke="#3DB6B8" stroke-miterlimit="10" d="M73.7,410.8L60.2,384L47,410.7c-0.8,2.1-4.4,1-3.6-1.4l15.1-30.5
			c0.7-1.4,2.6-1.7,3.5,0.2l15.3,30.3C78.3,411.6,74.7,413.1,73.7,410.8L73.7,410.8z"/>
		<path fill="#3DB6B8" stroke="#3DB6B8" stroke-miterlimit="10" d="M63.1,403.3h-5.5c-2.4,0-2.5-3.9,0-3.9h5.5
			C65.7,399.3,65.7,403.3,63.1,403.3L63.1,403.3z"/>
		<path fill="#3DB6B8" stroke="#3DB6B8" stroke-miterlimit="10" d="M191.4,410.4v-23.8l-10.7,16.7c-0.8,1.5-2.8,1.5-3.6,0
			l-10.7-16.6v23.7c0,2.5-3.8,2.5-3.8,0v-30.1c0-2.2,2.5-2.8,3.6-0.9l12.8,19.9l12.7-19.9c1.2-1.9,3.6-1.3,3.6,0.9v30.1
			C195.2,412.9,191.4,412.9,191.4,410.4L191.4,410.4z"/>
		<path fill="#3DB6B8" stroke="#3DB6B8" stroke-miterlimit="10" d="M282,382.2h-11.7c0,9.4,0.1,19,0.1,28.4c0,1.3-1.1,1.9-2,1.9
			s-1.9-0.6-1.9-1.9v-28.4h-11.6c-2.5,0-2.5-3.6,0-3.6H282C284.5,378.5,284.5,382.2,282,382.2L282,382.2z"/>
		<path fill="#3DB6B8" stroke="#3DB6B8" stroke-miterlimit="10" d="M298.5,410.5v-31.3c0-2.6,3.9-2.6,3.9,0v31.3
			C302.4,412.9,298.5,413.1,298.5,410.5L298.5,410.5z"/>
		<path fill="#3DB6B8" stroke="#3DB6B8" stroke-miterlimit="10" d="M346,385.5c-3.6-3.8-7.7-4.3-12.3-3.8c-6.4,1-11,5.5-11,13.1
			c0,7.9,6.1,14,13.4,14c1.9,0,4.1-0.5,6.1-1.5c1.6-0.8,3.2-2.1,4.3-3.5c1.2-1.8,4.4,0.2,3,2.1c-1.4,2-3.4,3.6-5.7,4.7
			c-2.5,1.2-5.3,1.9-7.9,1.9c-9,0-17-7.3-17-17.7c0-8.6,6.1-15.4,14.2-16.6c6.1-0.8,11.5,0.7,15.6,5
			C350.3,384.9,347.5,387.1,346,385.5L346,385.5z"/>
		<path fill="#3DB6B8" stroke="#3DB6B8" stroke-miterlimit="10" d="M241.9,411l-13.5-26.8l-13.2,26.7c-0.8,2.1-4.4,1-3.6-1.4
			l15.1-30.5c0.7-1.4,2.6-1.7,3.5,0.2l15.3,30.3C246.5,411.7,242.9,413.2,241.9,411L241.9,411z"/>
		<path fill="#3DB6B8" stroke="#3DB6B8" stroke-miterlimit="10" d="M231.3,403.4h-5.5c-2.4,0-2.5-3.9,0-3.9h5.5
			C233.9,399.5,233.9,403.4,231.3,403.4L231.3,403.4z"/>
	</g>
	<path display="inline" fill="#404040" stroke="#3C4242" stroke-miterlimit="10" d="M241.7,438.5c0,3.5-2.6,5.4-7.3,5.4h-6.9
		c-0.8,0-1.4-0.6-1.4-1.3l0.1-14.8c0-0.7,0.6-1.3,1.4-1.3h6.3c3.2,0,6.6,1.3,6.6,4.9c0,1.3-0.5,2.4-1.5,3.1
		C240.7,435.1,241.7,436.6,241.7,438.5L241.7,438.5z M233.9,428.7H229v4.6h5c1.8,0,3.9-0.4,3.9-2.1
		C237.9,428.9,234.3,428.7,233.9,428.7L233.9,428.7z M235.2,435.8h-6.3v5.4h5.5c3,0,4.5-1,4.5-2.9
		C238.9,436.1,236.3,435.9,235.2,435.8L235.2,435.8z M264.8,428.9h-10v5.1h9.5c0.8,0,1.2,0.6,1.2,1.2c0,0.3-0.1,0.6-0.3,0.8
		c-0.2,0.3-0.5,0.4-0.9,0.4h-9.5v4.9h10c0.8,0,1.3,0.7,1.3,1.3c0,0.3-0.1,0.6-0.3,0.8c-0.2,0.2-0.5,0.4-1,0.4l-11.1-0.1
		c-0.9,0-1.6-0.7-1.6-1.5l0.1-14.4c0-0.9,0.7-1.5,1.6-1.5l11.1,0.1c0.5,0,0.8,0.2,0.9,0.4c0.2,0.2,0.3,0.5,0.3,0.8
		C266,428.2,265.6,428.9,264.8,428.9L264.8,428.9z M287.5,437.9l3.8,4.1c0.4,0.4,0.6,0.9,0.4,1.4s-0.7,0.8-1.2,0.8
		c-0.4,0-0.7-0.2-1-0.4l-5.2-5.6h-4.6v4.7c0,1.3-1.5,1.6-2.3,1c-0.3-0.2-0.4-0.6-0.4-1l0.1-15.1c0-0.8,0.6-1.3,1.4-1.3h6.3
		c5,0,7.3,3,7.3,6C291.9,435.3,290.3,437.2,287.5,437.9L287.5,437.9z M284.7,429h-4.9v6.7h4.9c1.7,0,3-0.4,3.8-1.2
		c0.5-0.5,0.8-1.2,0.7-2C289.2,430.5,287.4,429,284.7,429L284.7,429z M315.7,443.7c-0.2,0.2-0.5,0.4-1,0.4l-10.8-0.1
		c-0.9,0-1.4-0.5-1.4-1.4l0.1-15.1c0-1.7,2.7-1.7,2.7,0l-0.1,13.9h9.5c0.9,0,1.4,0.6,1.4,1.3C316.1,443.2,315.9,443.5,315.7,443.7
		L315.7,443.7z M327,444.5c-0.7,0-1.4-0.5-1.4-1.3l0.1-15.7c0-1.8,2.8-1.8,2.8,0l-0.1,15.7C328.4,444,327.7,444.5,327,444.5
		L327,444.5z M353.4,444.4c-0.6,0-1.2-0.3-1.5-0.8l-9-12.1l0.1,2.3v9.3c0,0.9-0.7,1.4-1.4,1.4c-0.4,0-0.7-0.1-0.9-0.3
		c-0.3-0.3-0.4-0.6-0.4-1l0.1-15c0-1,0.7-1.5,1.4-1.5c0.6,0,1.1,0.3,1.4,0.8l9.2,12.4l-0.2-2.6V428c0-0.7,0.6-1.2,1.4-1.2
		s1.4,0.5,1.4,1.2l-0.1,15.1C355,443.9,354.2,444.4,353.4,444.4L353.4,444.4z"/>
</g>
<g id="Layer_8" display="none">
	<path display="inline" stroke="#000000" stroke-miterlimit="10" d="M241.7,438.5c0,3.5-2.6,5.4-7.3,5.4h-6.9
		c-0.8,0-1.4-0.6-1.4-1.3l0.1-14.8c0-0.7,0.6-1.3,1.4-1.3h6.3c3.2,0,6.6,1.3,6.6,4.9c0,1.3-0.5,2.4-1.5,3.1
		C240.7,435.1,241.7,436.6,241.7,438.5L241.7,438.5z M233.9,428.7H229v4.6h5c1.8,0,3.9-0.4,3.9-2.1
		C237.9,428.9,234.3,428.7,233.9,428.7L233.9,428.7z M235.2,435.8h-6.3v5.4h5.5c3,0,4.5-1,4.5-2.9
		C238.9,436.1,236.3,435.9,235.2,435.8L235.2,435.8z M264.8,428.9h-10v5.1h9.5c0.8,0,1.2,0.6,1.2,1.2c0,0.3-0.1,0.6-0.3,0.8
		c-0.2,0.3-0.5,0.4-0.9,0.4h-9.5v4.9h10c0.8,0,1.3,0.7,1.3,1.3c0,0.3-0.1,0.6-0.3,0.8c-0.2,0.2-0.5,0.4-1,0.4l-11.1-0.1
		c-0.9,0-1.6-0.7-1.6-1.5l0.1-14.4c0-0.9,0.7-1.5,1.6-1.5l11.1,0.1c0.5,0,0.8,0.2,0.9,0.4c0.2,0.2,0.3,0.5,0.3,0.8
		C266,428.2,265.6,428.9,264.8,428.9L264.8,428.9z M287.5,437.9l3.8,4.1c0.4,0.4,0.6,0.9,0.4,1.4s-0.7,0.8-1.2,0.8
		c-0.4,0-0.7-0.2-1-0.4l-5.2-5.6h-4.6v4.7c0,1.3-1.5,1.6-2.3,1c-0.3-0.2-0.4-0.6-0.4-1l0.1-15.1c0-0.8,0.6-1.3,1.4-1.3h6.3
		c5,0,7.3,3,7.3,6C291.9,435.3,290.3,437.2,287.5,437.9L287.5,437.9z M284.7,429h-4.9v6.7h4.9c1.7,0,3-0.4,3.8-1.2
		c0.5-0.5,0.8-1.2,0.7-2C289.2,430.5,287.4,429,284.7,429L284.7,429z M315.7,443.7c-0.2,0.2-0.5,0.4-1,0.4l-10.8-0.1
		c-0.9,0-1.4-0.5-1.4-1.4l0.1-15.1c0-1.7,2.7-1.7,2.7,0l-0.1,13.9h9.5c0.9,0,1.4,0.6,1.4,1.3C316.1,443.2,315.9,443.5,315.7,443.7
		L315.7,443.7z M327,444.5c-0.7,0-1.4-0.5-1.4-1.3l0.1-15.7c0-1.8,2.8-1.8,2.8,0l-0.1,15.7C328.4,444,327.7,444.5,327,444.5
		L327,444.5z M353.4,444.4c-0.6,0-1.2-0.3-1.5-0.8l-9-12.1l0.1,2.3v9.3c0,0.9-0.7,1.4-1.4,1.4c-0.4,0-0.7-0.1-0.9-0.3
		c-0.3-0.3-0.4-0.6-0.4-1l0.1-15c0-1,0.7-1.5,1.4-1.5c0.6,0,1.1,0.3,1.4,0.8l9.2,12.4l-0.2-2.6V428c0-0.7,0.6-1.2,1.4-1.2
		s1.4,0.5,1.4,1.2l-0.1,15.1C355,443.9,354.2,444.4,353.4,444.4L353.4,444.4z"/>
	<path display="inline" stroke="#000000" stroke-miterlimit="10" d="M241.7,438.5c0,3.5-2.6,5.4-7.3,5.4h-6.9
		c-0.8,0-1.4-0.6-1.4-1.3l0.1-14.8c0-0.7,0.6-1.3,1.4-1.3h6.3c3.2,0,6.6,1.3,6.6,4.9c0,1.3-0.5,2.4-1.5,3.1
		C240.7,435.1,241.7,436.6,241.7,438.5L241.7,438.5z M233.9,428.7H229v4.6h5c1.8,0,3.9-0.4,3.9-2.1
		C237.9,428.9,234.3,428.7,233.9,428.7L233.9,428.7z M235.2,435.8h-6.3v5.4h5.5c3,0,4.5-1,4.5-2.9
		C238.9,436.1,236.3,435.9,235.2,435.8L235.2,435.8z M264.8,428.9h-10v5.1h9.5c0.8,0,1.2,0.6,1.2,1.2c0,0.3-0.1,0.6-0.3,0.8
		c-0.2,0.3-0.5,0.4-0.9,0.4h-9.5v4.9h10c0.8,0,1.3,0.7,1.3,1.3c0,0.3-0.1,0.6-0.3,0.8c-0.2,0.2-0.5,0.4-1,0.4l-11.1-0.1
		c-0.9,0-1.6-0.7-1.6-1.5l0.1-14.4c0-0.9,0.7-1.5,1.6-1.5l11.1,0.1c0.5,0,0.8,0.2,0.9,0.4c0.2,0.2,0.3,0.5,0.3,0.8
		C266,428.2,265.6,428.9,264.8,428.9L264.8,428.9z M287.5,437.9l3.8,4.1c0.4,0.4,0.6,0.9,0.4,1.4s-0.7,0.8-1.2,0.8
		c-0.4,0-0.7-0.2-1-0.4l-5.2-5.6h-4.6v4.7c0,1.3-1.5,1.6-2.3,1c-0.3-0.2-0.4-0.6-0.4-1l0.1-15.1c0-0.8,0.6-1.3,1.4-1.3h6.3
		c5,0,7.3,3,7.3,6C291.9,435.3,290.3,437.2,287.5,437.9L287.5,437.9z M284.7,429h-4.9v6.7h4.9c1.7,0,3-0.4,3.8-1.2
		c0.5-0.5,0.8-1.2,0.7-2C289.2,430.5,287.4,429,284.7,429L284.7,429z M315.7,443.7c-0.2,0.2-0.5,0.4-1,0.4l-10.8-0.1
		c-0.9,0-1.4-0.5-1.4-1.4l0.1-15.1c0-1.7,2.7-1.7,2.7,0l-0.1,13.9h9.5c0.9,0,1.4,0.6,1.4,1.3C316.1,443.2,315.9,443.5,315.7,443.7
		L315.7,443.7z M327,444.5c-0.7,0-1.4-0.5-1.4-1.3l0.1-15.7c0-1.8,2.8-1.8,2.8,0l-0.1,15.7C328.4,444,327.7,444.5,327,444.5
		L327,444.5z M353.4,444.4c-0.6,0-1.2-0.3-1.5-0.8l-9-12.1l0.1,2.3v9.3c0,0.9-0.7,1.4-1.4,1.4c-0.4,0-0.7-0.1-0.9-0.3
		c-0.3-0.3-0.4-0.6-0.4-1l0.1-15c0-1,0.7-1.5,1.4-1.5c0.6,0,1.1,0.3,1.4,0.8l9.2,12.4l-0.2-2.6V428c0-0.7,0.6-1.2,1.4-1.2
		s1.4,0.5,1.4,1.2l-0.1,15.1C355,443.9,354.2,444.4,353.4,444.4L353.4,444.4z"/>
</g>
</svg>
